<svg width="26" height="28" viewBox="0 0 26 28" fill="none" xmlns="http://www.w3.org/2000/svg">
<path d="M4.31348 22.4H25.25V0H4.2557C2.32228 0.00641667 0.756356 1.58725 0.75 3.53908V24.1646H0.750578C0.750578 24.1733 0.75 24.1821 0.75 24.1908C0.75 26.2558 2.35521 28 4.2557 28H25.25V26.1333H4.2557C3.38895 26.1333 2.59906 25.2076 2.59906 24.1908C2.59906 23.2202 3.38433 22.4 4.31348 22.4ZM6.29717 1.88592H11.8443V11.9671L9.04764 9.4885L6.29717 11.9525V1.88592ZM2.59906 3.55367C2.59617 2.62617 3.33695 1.87192 4.2557 1.86667H4.44811H6.29717H4.44811V14.4667H6.27637L9.05458 11.9782L11.8617 14.4667H13.6934V1.86667H23.4009V20.5333H6.30179H4.45274H4.31348C3.71196 20.5333 3.12141 20.692 2.59963 20.993V3.55367H2.59906Z" fill="#FFCA42"/>
</svg>
